<!--?xml version="1.0" encoding="UTF-8" standalone="no"?-->

<!-- Generated by graphviz version 2.38.0 (20140413.2041)
 -->
<!-- Title: g Pages: 1 -->
<svg width="409pt" height="170pt" viewBox="0.00 0.00 409.46 170.00" xmlns="http://www.w3.org/2000/svg" xmlns:xlink="http://www.w3.org/1999/xlink">
<g id="graph0" class="graph" transform="scale(1 1) rotate(0) translate(4 166)">
<title>g</title>
<polygon fill="white" stroke="none" points="-4,4 -4,-166 405.462,-166 405.462,4 -4,4"></polygon>
<!-- A -->
<g id="node1" class="node"><title>A</title>
<polygon fill="lightgreen" stroke="lightgreen" points="72,-162 0,-162 0,-90 72,-90 72,-162"></polygon>
<text text-anchor="middle" x="36" y="-121.8" font-family="Times,serif" font-size="14.00">A</text>
</g>
<!-- Block -->
<g id="node3" class="node"><title>Block</title>
<polygon fill="lightblue" stroke="lightblue" points="236.731,-153 164.731,-153 164.731,-9 236.731,-9 236.731,-153"></polygon>
<text text-anchor="middle" x="200.731" y="-76.8" font-family="Times,serif" font-size="14.00">Block</text>
</g>
<!-- A&#45;&gt;Block -->
<g id="edge1" class="edge"><title>A-&gt;Block</title>
<path fill="none" stroke="black" d="M72.1509,-121.5C72.1509,-121.5 154.664,-121.5 154.664,-121.5"></path>
<polygon fill="black" stroke="black" points="154.664,-125 164.664,-121.5 154.664,-118 154.664,-125"></polygon>
<text text-anchor="middle" x="118.365" y="-130.2" font-family="Times,serif" font-size="14.00">Interface1</text>
</g>
<!-- B -->
<g id="node2" class="node"><title>B</title>
<polygon fill="lightgreen" stroke="lightgreen" points="401.462,-117 329.462,-117 329.462,-45 401.462,-45 401.462,-117"></polygon>
<text text-anchor="middle" x="365.462" y="-76.8" font-family="Times,serif" font-size="14.00">B</text>
</g>
<!-- Block&#45;&gt;B -->
<g id="edge3" class="edge"><title>Block-&gt;B</title>
<path fill="none" stroke="black" d="M236.882,-81C236.882,-81 319.395,-81 319.395,-81"></path>
<polygon fill="black" stroke="black" points="319.395,-84.5001 329.395,-81 319.395,-77.5001 319.395,-84.5001"></polygon>
<text text-anchor="middle" x="283.096" y="-85.2" font-family="Times,serif" font-size="14.00">Interface3</text>
</g>
<!-- External -->
<g id="node4" class="node"><title>External</title>
<polygon fill="pink" stroke="pink" points="72,-72 0,-72 0,-0 72,-0 72,-72"></polygon>
<text text-anchor="middle" x="36" y="-31.8" font-family="Times,serif" font-size="14.00">External</text>
</g>
<!-- External&#45;&gt;Block -->
<g id="edge2" class="edge"><title>External-&gt;Block</title>
<path fill="none" stroke="black" d="M82.1509,-40.5C82.1509,-40.5 164.664,-40.5 164.664,-40.5"></path>
<polygon fill="black" stroke="black" points="82.1509,-37.0001 72.1509,-40.5 82.1508,-44.0001 82.1509,-37.0001"></polygon>
<text text-anchor="middle" x="118.365" y="-40.2" font-family="Times,serif" font-size="14.00">Interface2</text>
</g>
</g>
</svg>
