<!--?xml version="1.0" encoding="UTF-8" standalone="no"?-->

<!-- Generated by graphviz version 2.38.0 (20140413.2041)
 -->
<!-- Title: g Pages: 1 -->
<svg width="506pt" height="170pt" viewBox="0.00 0.00 505.95 170.00" xmlns="http://www.w3.org/2000/svg" xmlns:xlink="http://www.w3.org/1999/xlink">
<g id="graph0" class="graph" transform="scale(1 1) rotate(0) translate(4 166)">
<title>g</title>
<polygon fill="white" stroke="none" points="-4,4 -4,-166 501.948,-166 501.948,4 -4,4"></polygon>
<!-- A -->
<g id="node1" class="node"><title>A</title>
<polygon fill="lightgreen" stroke="lightgreen" points="72,-162 0,-162 0,-90 72,-90 72,-162"></polygon>
<text text-anchor="middle" x="36" y="-121.8" font-family="Times,serif" font-size="14.00">A</text>
</g>
<!-- Block -->
<g id="node3" class="node"><title>Block</title>
<polygon fill="lightblue" stroke="lightblue" points="286.921,-153 214.921,-153 214.921,-9 286.921,-9 286.921,-153"></polygon>
<text text-anchor="middle" x="250.921" y="-76.8" font-family="Times,serif" font-size="14.00">Block</text>
</g>
<!-- A&#45;&gt;Block -->
<g id="edge1" class="edge"><title>A-&gt;Block</title>
<path fill="none" stroke="black" d="M72.4584,-121.5C72.4584,-121.5 204.643,-121.5 204.643,-121.5"></path>
<polygon fill="black" stroke="black" points="204.643,-125 214.643,-121.5 204.643,-118 204.643,-125"></polygon>
<text text-anchor="middle" x="143.46" y="-130.2" font-family="Times,serif" font-size="14.00">Watchdog Monitor</text>
</g>
<!-- B -->
<g id="node2" class="node"><title>B</title>
<polygon fill="lightgreen" stroke="lightgreen" points="497.948,-117 425.948,-117 425.948,-45 497.948,-45 497.948,-117"></polygon>
<text text-anchor="middle" x="461.948" y="-76.8" font-family="Times,serif" font-size="14.00">B</text>
</g>
<!-- Block&#45;&gt;B -->
<g id="edge3" class="edge"><title>Block-&gt;B</title>
<path fill="none" stroke="black" d="M287.198,-81C287.198,-81 415.792,-81 415.792,-81"></path>
<polygon fill="black" stroke="black" points="415.792,-84.5001 425.792,-81 415.792,-77.5001 415.792,-84.5001"></polygon>
<text text-anchor="middle" x="356.434" y="-85.2" font-family="Times,serif" font-size="14.00">Watchdog Uptime</text>
</g>
<!-- External -->
<g id="node4" class="node"><title>External</title>
<polygon fill="pink" stroke="pink" points="72,-72 0,-72 0,-0 72,-0 72,-72"></polygon>
<text text-anchor="middle" x="36" y="-31.8" font-family="Times,serif" font-size="14.00">External</text>
</g>
<!-- External&#45;&gt;Block -->
<g id="edge2" class="edge"><title>External-&gt;Block</title>
<path fill="none" stroke="black" d="M82.4584,-40.5C82.4584,-40.5 214.643,-40.5 214.643,-40.5"></path>
<polygon fill="black" stroke="black" points="82.4584,-37.0001 72.4584,-40.5 82.4583,-44.0001 82.4584,-37.0001"></polygon>
<text text-anchor="middle" x="143.46" y="-40.2" font-family="Times,serif" font-size="14.00">LED</text>
</g>
</g>
</svg>
